<svg width="190" height="40" viewBox="0 0 190 40" fill="none" xmlns="http://www.w3.org/2000/svg">
<path fill-rule="evenodd" clip-rule="evenodd" d="M64.8592 9.66692V14.8537C63.4267 16.3697 61.1049 17.1986 58.3388 17.1986C53.7943 17.1986 50.707 14.2618 50.707 9.19323C50.707 4.26653 53.7697 1.28253 58.3388 1.28253C61.0307 1.28253 63.1551 2.22968 64.4885 3.81668C64.3157 4.43246 63.6983 4.81151 63.1055 4.95359C62.167 3.651 60.5863 2.89314 58.3388 2.89314C54.8315 2.89314 52.683 5.23776 52.683 9.19323C52.683 13.2669 54.8564 15.5644 58.3388 15.5644C60.0675 15.5644 61.5988 15.1853 62.8832 14.38V9.99853C63.4018 9.5246 64.1922 9.45379 64.8592 9.66692Z" fill="#2C2A29"/>
<path fill-rule="evenodd" clip-rule="evenodd" d="M73.48 6.6827C71.4547 6.6827 70.4422 6.82455 69.6271 7.25104V16.9616H67.7251V6.11413C69.1083 5.37987 70.8619 5.02466 72.3684 5.02466C73.1095 5.02466 73.5292 5.14314 73.8258 5.23778C73.8258 5.78252 73.7516 6.32725 73.48 6.6827Z" fill="#2C2A29"/>
<path fill-rule="evenodd" clip-rule="evenodd" d="M85.9286 5.09567V15.9432C84.9901 16.5828 82.2732 17.0329 80.7419 17.0329C77.8522 17.0329 76 16.0145 76 13.1721V5.45088C76.5679 5.19032 77.1606 5.09567 77.9015 5.09567V12.9117C77.9015 14.6406 78.9638 15.422 81.1865 15.422C82.2485 15.422 83.2364 15.2566 84.0268 15.0432V5.42728C84.5454 5.16671 85.2863 5.09567 85.9286 5.09567Z" fill="#2C2A29"/>
<path fill-rule="evenodd" clip-rule="evenodd" d="M98.1303 10.946C98.1303 8.48262 96.6978 6.56425 93.2894 6.56425C92.598 6.56425 91.8818 6.65889 91.1406 6.82458V15.1382C91.8818 15.3985 92.7954 15.6116 93.7833 15.6116C96.4755 15.6116 98.1303 14.238 98.1303 10.946ZM100.057 11.2301C100.057 14.617 98.3282 17.1986 94.6232 17.1986C93.4626 17.1986 92.1289 16.8434 91.1408 16.2751V21.0589C90.7457 21.4146 89.8071 21.675 89.239 21.675V5.66429C90.0294 5.33268 91.6347 5.00107 93.166 5.00107C97.4389 5.00107 100.057 7.13257 100.057 11.2301Z" fill="#2C2A29"/>
<path fill-rule="evenodd" clip-rule="evenodd" d="M111.864 11.0406C111.864 8.22201 110.382 6.5878 107.838 6.5878C105.343 6.5878 103.837 8.22201 103.837 11.0406C103.837 14.0248 105.319 15.5644 107.838 15.5644C110.382 15.5644 111.864 14.0248 111.864 11.0406ZM101.885 11.0406C101.885 7.34568 104.281 4.95361 107.838 4.95361C111.468 4.95361 113.79 7.39312 113.79 11.0406C113.79 14.8537 111.444 17.1986 107.838 17.1986C104.207 17.1986 101.885 14.7827 101.885 11.0406Z" fill="#2C2A29"/>
<path fill-rule="evenodd" clip-rule="evenodd" d="M31.682 28.2082C27.0661 29.2743 22.5491 30.6043 18.0766 32.1267C17.4375 32.3582 16.7437 32.0576 16.5744 31.47C16.2144 30.2184 15.895 29.2555 15.5392 28.0082C15.3901 27.4847 15.7097 26.9156 16.2769 26.7175C20.7509 25.2557 25.2672 24.1071 29.8875 23.1542C30.3969 23.0543 30.9329 23.4129 31.1164 23.9624C31.4898 25.081 31.8147 25.9797 32.1779 27.103C32.3427 27.6122 32.1246 28.106 31.682 28.2082ZM8.5265 25.8207C8.2534 24.4745 7.97755 23.4634 7.70968 22.1203C7.60536 21.5951 7.90411 20.9989 8.40252 20.7746C15.2354 17.9 22.4406 16.1606 29.8406 15.2638C30.3278 15.203 30.8202 15.5473 31.0017 16.0622C31.3921 17.1698 31.7252 18.0633 32.1044 19.1761C32.2873 19.713 32.0436 20.2341 31.5654 20.3085C24.0414 21.4559 16.7069 23.3802 9.76655 26.4026C9.20889 26.661 8.64351 26.3962 8.5265 25.8207ZM11.8543 10.5211C16.4309 9.26075 20.9975 8.44233 25.7242 7.88806C26.24 7.8349 26.7439 8.15387 26.9304 8.6402C27.3693 9.78569 27.7268 10.6985 28.1562 11.8504C28.3601 12.3971 28.0569 12.9421 27.5025 13.0126C22.6657 13.6937 17.9782 14.6299 13.3023 15.9981C12.7319 16.1783 12.1705 15.9041 12.0264 15.3727C11.686 14.1157 11.3768 13.1497 11.0425 11.8967C10.8924 11.3336 11.2581 10.699 11.8543 10.5211ZM20.8859 0C9.35103 0 0 8.95439 0 20C0 31.0456 9.35103 40 20.8859 40C32.4208 40 41.7718 31.0456 41.7718 20C41.7718 8.95439 32.4208 0 20.8859 0Z" fill="#2C2A29"/>
<path fill-rule="evenodd" clip-rule="evenodd" d="M59.0556 33.7254C59.0556 32.4702 58.2146 31.9491 56.5576 31.9491H54.5786V35.5017H56.5327C58.1404 35.5017 59.0556 34.8859 59.0556 33.7254ZM56.1617 25.7201C55.6424 25.7201 55.0982 25.7673 54.5786 25.8386V28.9885H56.2608C57.7446 28.9885 58.4372 28.3966 58.4372 27.3779C58.4372 26.4069 57.7199 25.7201 56.1617 25.7201ZM63.1118 33.8913C63.1118 36.6624 60.1933 38.5098 56.8789 38.5098H50.7944V23.2095C52.8227 22.9253 54.3562 22.7358 56.1617 22.7358C59.5007 22.7358 62.172 24.2279 62.172 26.8334C62.172 28.3255 61.3556 29.3201 59.8965 29.865C62.1473 30.4806 63.1118 31.7834 63.1118 33.8913Z" fill="#2C2A29"/>
<path fill-rule="evenodd" clip-rule="evenodd" d="M71.8273 35.4781V33.4413H71.1098C69.4279 33.4413 67.8943 33.7965 67.8943 34.9098C67.8943 35.7623 68.488 36.0703 69.7 36.0703C70.6647 36.0703 71.4561 35.7861 71.8273 35.4781ZM75.4628 31.0492V37.2782C74.1272 38.2492 71.9752 38.7703 69.0567 38.7703C66.4596 38.7703 64.3076 37.7519 64.3076 35.5017C64.3076 32.1148 67.7457 31.2861 71.8271 31.1676C71.7526 29.6991 71.1342 29.3201 69.7739 29.3201C69.0567 29.3201 67.1522 29.6281 66.905 29.6281C66.3112 29.6281 65.8414 29.2729 65.4456 28.2306L65.1486 27.3779C66.6822 26.8334 68.1911 26.4543 69.8235 26.4543C73.385 26.4543 75.4628 27.7333 75.4628 31.0492Z" fill="#2C2A29"/>
<path fill-rule="evenodd" clip-rule="evenodd" d="M89.0828 30.0779V38.5098H85.3729V31.3333C85.3729 30.0779 84.5073 29.4386 82.9984 29.4386C82.4297 29.4386 81.8855 29.5098 81.4155 29.6281V38.5098H77.6809L77.7053 27.9703C79.2638 26.9755 81.7864 26.4307 83.8393 26.4307C86.6839 26.4307 89.0828 27.7808 89.0828 30.0779Z" fill="#2C2A29"/>
<path fill-rule="evenodd" clip-rule="evenodd" d="M90.6914 32.7306C90.6914 28.5861 93.709 26.4069 97.6169 26.4069C98.705 26.4069 99.6946 26.5492 100.882 26.8098C100.734 27.9939 100.214 29.0359 99.6454 29.6281C99.2246 29.5099 98.532 29.4147 98.1364 29.4147C95.6384 29.4147 94.6242 30.6465 94.6242 32.5177C94.6242 34.4125 95.564 35.5727 97.9139 35.5727C98.5569 35.5727 99.2988 35.4545 100.214 35.1465L100.882 37.9886C99.5216 38.5098 98.1118 38.7467 96.9987 38.7467C93.1897 38.7467 90.6914 36.5676 90.6914 32.7306Z" fill="#2C2A29"/>
<path fill-rule="evenodd" clip-rule="evenodd" d="M110.775 32.5649C110.775 30.6229 109.786 29.486 108.055 29.486C106.373 29.486 105.334 30.6229 105.334 32.5649C105.334 34.6018 106.348 35.6679 108.055 35.6679C109.786 35.6679 110.775 34.6018 110.775 32.5649ZM101.599 32.5649C101.599 28.7756 104.27 26.4069 108.055 26.4069C111.987 26.4069 114.51 28.8702 114.51 32.5649C114.51 36.378 111.963 38.7467 108.055 38.7467C104.122 38.7467 101.599 36.307 101.599 32.5649Z" fill="#2C2A29"/>
<path fill-rule="evenodd" clip-rule="evenodd" d="M116.613 23.3042C117.479 22.6884 119.358 22.1675 120.348 22.1675V38.5098H116.613V23.3042Z" fill="#2C2A29"/>
<path fill-rule="evenodd" clip-rule="evenodd" d="M131.627 32.5649C131.627 30.6229 130.637 29.486 128.906 29.486C127.224 29.486 126.185 30.6229 126.185 32.5649C126.185 34.6018 127.199 35.6679 128.906 35.6679C130.637 35.6679 131.627 34.6018 131.627 32.5649ZM122.45 32.5649C122.45 28.7756 125.122 26.4069 128.906 26.4069C132.839 26.4069 135.362 28.8702 135.362 32.5649C135.362 36.378 132.814 38.7467 128.906 38.7467C124.973 38.7467 122.45 36.307 122.45 32.5649Z" fill="#2C2A29"/>
<path fill-rule="evenodd" clip-rule="evenodd" d="M156.163 30.0779V38.5098H152.478V31.3333C152.478 30.0779 151.637 29.4386 150.153 29.4386C149.46 29.4386 148.792 29.5809 148.248 29.7938C148.446 30.3149 148.545 30.8832 148.545 31.499V38.5098H144.86V31.3333C144.86 30.0779 144.019 29.4386 142.535 29.4386C141.966 29.4386 141.422 29.5098 140.952 29.6281V38.5098H137.217L137.242 27.9703C138.726 26.9755 141.051 26.4307 143.005 26.4307C144.563 26.4307 145.899 26.928 146.863 27.7333C148.125 26.9516 149.881 26.4307 151.365 26.4307C154.061 26.4307 156.163 27.8041 156.163 30.0779Z" fill="#2C2A29"/>
<path fill-rule="evenodd" clip-rule="evenodd" d="M167.467 32.3992C167.467 30.2201 166.28 29.4386 164.375 29.4386C163.609 29.4386 162.99 29.5809 162.446 29.8176V35.7623C163.114 35.8572 163.757 35.9046 164.351 35.9046C166.527 35.9046 167.467 34.294 167.467 32.3992ZM171.152 31.9491C171.152 36.2598 168.481 38.7468 164.127 38.7468C162.001 38.7468 159.948 38.3677 158.711 37.823V23.3042C159.577 22.6884 161.481 22.1675 162.446 22.1675V27.7808C163.509 26.9044 164.796 26.4307 165.958 26.4307C169.643 26.4307 171.152 28.8703 171.152 31.9491Z" fill="#2C2A29"/>
<path fill-rule="evenodd" clip-rule="evenodd" d="M173.256 26.7621C173.775 26.5492 174.418 26.4307 175.135 26.4307C175.852 26.4307 176.471 26.5492 176.99 26.7621V38.5098H173.256V26.7621ZM173.206 23.02C173.206 22.0254 174.071 21.1965 175.11 21.1965C176.174 21.1965 177.04 22.0018 177.04 23.02C177.04 23.991 176.174 24.8437 175.11 24.8437C174.071 24.8437 173.206 24.0387 173.206 23.02Z" fill="#2C2A29"/>
<path fill-rule="evenodd" clip-rule="evenodd" d="M186.364 35.4781V33.4413H185.647C183.965 33.4413 182.431 33.7965 182.431 34.9098C182.431 35.7623 183.025 36.0703 184.237 36.0703C185.202 36.0703 185.993 35.7861 186.364 35.4781ZM190 31.0492V37.2782C188.665 38.2492 186.513 38.7703 183.594 38.7703C180.997 38.7703 178.845 37.7519 178.845 35.5017C178.845 32.1148 182.283 31.2861 186.364 31.1676C186.29 29.6991 185.672 29.3201 184.311 29.3201C183.594 29.3201 181.69 29.6281 181.442 29.6281C180.849 29.6281 180.379 29.2729 179.983 28.2306L179.686 27.3779C181.22 26.8334 182.728 26.4543 184.361 26.4543C187.923 26.4543 190 27.7333 190 31.0492Z" fill="#2C2A29"/>
</svg>
